<svg width="26" height="26" viewBox="0 0 26 26" fill="none" xmlns="http://www.w3.org/2000/svg">
<path d="M13 0.203125C7.51182 0.203125 3.04688 4.66807 3.04688 10.1562C3.04688 12.8223 4.66207 16.2459 7.84758 20.3317C9.30701 22.1988 10.8875 23.968 12.5788 25.6279C12.6922 25.7363 12.8431 25.7969 13 25.7969C13.1569 25.7969 13.3078 25.7363 13.4212 25.6279C15.1125 23.968 16.693 22.1988 18.1524 20.3317C21.3379 16.2459 22.9531 12.8223 22.9531 10.1562C22.9531 4.66807 18.4882 0.203125 13 0.203125ZM13 17.2656C9.07969 17.2656 5.89062 14.0766 5.89062 10.1562C5.89062 6.23594 9.07969 3.04688 13 3.04688C16.9203 3.04688 20.1094 6.23594 20.1094 10.1562C20.1094 14.0766 16.9203 17.2656 13 17.2656Z" fill="#4A72FF"/>
<path d="M17.8785 9.2991L13.4098 5.2366C13.2976 5.13463 13.1514 5.07812 12.9999 5.07812C12.8483 5.07812 12.7021 5.13463 12.5899 5.2366L8.12121 9.2991C8.0171 9.39378 7.94894 9.52155 7.9283 9.66075C7.90766 9.79994 7.93581 9.942 8.00797 10.0628C8.0649 10.1548 8.14468 10.2304 8.23955 10.2824C8.33442 10.3344 8.44113 10.3609 8.54929 10.3594H9.14049V14.2188C9.14049 14.3804 9.20469 14.5354 9.31897 14.6496C9.43325 14.7639 9.58824 14.8281 9.74986 14.8281H11.1717C11.3333 14.8281 11.4883 14.7639 11.6026 14.6496C11.7169 14.5354 11.7811 14.3804 11.7811 14.2188V11.9844C11.7811 11.8228 11.8453 11.6678 11.9596 11.5535C12.0739 11.4392 12.2289 11.375 12.3905 11.375H13.6092C13.7708 11.375 13.9258 11.4392 14.0401 11.5535C14.1544 11.6678 14.2186 11.8228 14.2186 11.9844V14.2188C14.2186 14.3804 14.2828 14.5354 14.3971 14.6496C14.5114 14.7639 14.6664 14.8281 14.828 14.8281H16.2498C16.4115 14.8281 16.5665 14.7639 16.6807 14.6496C16.795 14.5354 16.8592 14.3804 16.8592 14.2188V10.3594H17.4504C17.5586 10.3609 17.6653 10.3344 17.7602 10.2824C17.855 10.2304 17.9348 10.1548 17.9917 10.0628C18.0639 9.942 18.092 9.79994 18.0714 9.66075C18.0508 9.52155 17.9826 9.39378 17.8785 9.2991Z" fill="#4A72FF"/>
</svg>
