<svg width="26" height="26" viewBox="0 0 26 26" fill="none" xmlns="http://www.w3.org/2000/svg">
<path d="M18.2449 8.35742H7.75496L12.9999 12.8531L18.2449 8.35742Z" fill="#4A72FF"/>
<path d="M12.9997 13.9283C12.8889 13.9283 12.7817 13.8886 12.6976 13.8163L6.96404 8.90186V17.6426H19.0355V8.90186L13.3019 13.8163C13.2178 13.8886 13.1106 13.9283 12.9997 13.9283Z" fill="#4A72FF"/>
<path d="M13 0C5.82035 0 0 5.82035 0 13C0 20.1797 5.82035 26 13 26C20.1797 26 26 20.1797 26 13C25.9918 5.82375 20.1763 0.00816127 13 0ZM19.9643 18.1071C19.9643 18.3635 19.7564 18.5714 19.5 18.5714H6.5C6.2436 18.5714 6.03571 18.3635 6.03571 18.1071V7.89286C6.03571 7.63646 6.2436 7.42857 6.5 7.42857H19.5C19.7564 7.42857 19.9643 7.63646 19.9643 7.89286V18.1071Z" fill="#4A72FF"/>
</svg>
