<svg width="26" height="26" viewBox="0 0 26 26" fill="none" xmlns="http://www.w3.org/2000/svg">
<path d="M10.7654 15.2337C8.28393 12.752 7.72362 10.2703 7.59721 9.27602C7.56189 9.00109 7.65649 8.72539 7.85316 8.53008L9.86132 6.52268C10.1567 6.22743 10.2091 5.76731 9.98773 5.41318L6.79036 0.448019C6.5454 0.0558848 6.04243 -0.0856404 5.62895 0.121222L0.496041 2.5388C0.161673 2.70346 -0.034998 3.05874 0.00296583 3.42954C0.271916 5.98474 1.38582 12.2661 7.55821 18.4393C13.7306 24.6126 20.0106 25.7261 22.567 25.9951C22.9377 26.0331 23.293 25.8364 23.4576 25.502L25.875 20.3687C26.0811 19.9561 25.9405 19.4545 25.5501 19.209L20.5852 16.0123C20.2313 15.7907 19.7713 15.8427 19.4758 16.1379L17.4686 18.1462C17.2733 18.3428 16.9976 18.4374 16.7227 18.4021C15.7285 18.2757 13.247 17.7154 10.7654 15.2337Z" fill="#4A72FF"/>
<path d="M20.6195 13.8968C20.1244 13.8968 19.723 13.4954 19.723 13.0003C19.7188 9.28831 16.711 6.28023 12.9993 6.27604C12.5042 6.27604 12.1028 5.87463 12.1028 5.37947C12.1028 4.88431 12.5042 4.48291 12.9993 4.48291C17.7008 4.4881 21.5108 8.29841 21.516 13.0003C21.516 13.4954 21.1146 13.8968 20.6195 13.8968Z" fill="#4A72FF"/>
<path d="M25.102 13.8967C24.6069 13.8967 24.2055 13.4953 24.2055 13.0001C24.1986 6.81354 19.1855 1.80004 12.9993 1.79312C12.5042 1.79312 12.1028 1.39172 12.1028 0.896561C12.1028 0.401404 12.5042 0 12.9993 0C20.1753 0.00790582 25.9906 5.82364 25.9985 13.0001C25.9985 13.2379 25.9041 13.466 25.7359 13.6341C25.5678 13.8022 25.3398 13.8967 25.102 13.8967Z" fill="#4A72FF"/>
</svg>
