<svg width="42" height="42" viewBox="0 0 42 42" fill="none" xmlns="http://www.w3.org/2000/svg">
<circle cx="21" cy="21" r="21" fill="black" fill-opacity="0.35"/>
<g clip-path="url(#clip0)">
<path d="M13.1833 26.9331L17.4489 22.6675C16.6226 21.6469 16.1251 20.3501 16.1251 18.9376C16.1251 15.6639 18.7889 13.0001 22.0626 13.0001C25.3363 13.0001 28 15.6638 28 18.9375C28 22.2113 25.3363 24.875 22.0625 24.875C20.6501 24.875 19.3532 24.3775 18.3326 23.5513L14.067 27.8168C13.9451 27.9387 13.7851 28 13.6251 28C13.4651 28 13.3051 27.9387 13.1832 27.8168C12.9389 27.5725 12.9389 27.1775 13.1833 26.9331ZM22.0625 23.625C24.6475 23.625 26.75 21.5225 26.75 18.9375C26.75 16.3526 24.6475 14.2501 22.0625 14.2501C19.4776 14.2501 17.3751 16.3526 17.3751 18.9375C17.3751 21.5225 19.4776 23.625 22.0625 23.625Z" fill="white"/>
</g>
<defs>
<clipPath id="clip0">
<rect width="15" height="15" fill="white" transform="matrix(-1 0 0 1 28 13)"/>
</clipPath>
</defs>
</svg>
