<svg width="18" height="17" viewBox="0 0 18 17" fill="none" xmlns="http://www.w3.org/2000/svg">
<path d="M16.398 0.00830401V2.32126C16.398 3.3667 15.5815 4.20916 14.5752 4.20916H13.4253C12.4189 4.20916 11.5916 3.3667 11.5916 2.32126V0H6.40877V2.32126C6.40877 3.3667 5.58149 4.20916 4.57524 4.20916H3.42514C2.41885 4.20916 1.6024 3.3667 1.6024 2.32126V0.00830401C0.722891 0.0358402 0.000183105 0.791773 0.000183105 1.72091V15.276C0.000183105 16.2226 0.691064 17 1.6024 17H5.50018H9.00018H15.8639C16.7739 17 18.0002 16.221 18.0002 15.276V1.72091C18.0002 0.791773 17.2775 0.0358402 16.398 0.00830401ZM15.8639 14.4319C15.8639 14.8409 15.5446 15.1728 15.1506 15.1728H2.81835C2.42436 15.1728 2.10503 14.8409 2.10503 14.4319V7.43018C2.10503 7.02094 2.42432 6.68906 2.81835 6.68906H15.1506C15.5446 6.68906 15.8639 7.02094 15.8639 7.43018L15.8639 14.4319Z" fill="white"/>
</svg>
