<svg width="16" height="16" viewBox="0 0 16 16" fill="none" xmlns="http://www.w3.org/2000/svg">
<path d="M15.8214 4.70404C15.7842 3.8539 15.6479 3.26944 15.4526 2.76299C15.2512 2.22541 14.9412 1.74412 14.5352 1.34401C14.1385 0.937683 13.6581 0.621948 13.1312 0.421957C12.6262 0.22502 12.0497 0.0875415 11.2067 0.0500586C10.3575 0.00940124 10.0879 0 7.93393 0C5.77999 0 5.51039 0.00940124 4.66428 0.0468842C3.82133 0.0843671 3.2418 0.221967 2.73976 0.418783C2.2066 0.621948 1.72937 0.934509 1.33265 1.34401C0.929757 1.74412 0.616812 2.22858 0.418391 2.75994C0.223118 3.26944 0.0868016 3.85073 0.0496355 4.70087C0.00932178 5.55736 0 5.82926 0 8.00156C0 10.1739 0.00932178 10.4458 0.0464879 11.2991C0.083654 12.1492 0.220091 12.7337 0.415364 13.2401C0.616812 13.7777 0.929757 14.259 1.33265 14.6591C1.72937 15.0654 2.20975 15.3812 2.73661 15.5812C3.2418 15.7781 3.81818 15.9156 4.66126 15.9531C5.50724 15.9907 5.77697 16 7.9309 16C10.0848 16 10.3544 15.9907 11.2006 15.9531C12.0435 15.9156 12.623 15.7781 13.1251 15.5812C14.1913 15.1654 15.0342 14.3153 15.4464 13.2401C15.6416 12.7306 15.778 12.1492 15.8152 11.2991C15.8524 10.4458 15.8617 10.1739 15.8617 8.00156C15.8617 5.82926 15.8585 5.55736 15.8214 4.70404ZM14.3927 11.2366C14.3586 12.018 14.2284 12.4399 14.12 12.7212C13.8534 13.4183 13.3049 13.9715 12.6137 14.2403C12.3348 14.3497 11.9134 14.481 11.1416 14.5153C10.3048 14.5529 10.0538 14.5622 7.93708 14.5622C5.82031 14.5622 5.5662 14.5529 4.73244 14.5153C3.95764 14.481 3.53925 14.3497 3.26033 14.2403C2.91639 14.1121 2.60332 13.909 2.34921 13.6433C2.08578 13.3838 1.88433 13.0713 1.75722 12.7244C1.64875 12.4431 1.5186 12.018 1.48459 11.2397C1.4473 10.3958 1.4381 10.1426 1.4381 8.00779C1.4381 5.87297 1.4473 5.6167 1.48459 4.77596C1.5186 3.99455 1.64875 3.5726 1.75722 3.29129C1.88433 2.9443 2.08578 2.62869 2.35236 2.37229C2.60949 2.10661 2.91941 1.90345 3.26347 1.77537C3.5424 1.66597 3.96394 1.53472 4.73559 1.50029C5.57237 1.46281 5.82345 1.45341 7.9401 1.45341C10.06 1.45341 10.311 1.46281 11.1447 1.50029C11.9195 1.53472 12.3379 1.66597 12.6169 1.77537C12.9608 1.90345 13.2739 2.10661 13.528 2.37229C13.7914 2.63174 13.9928 2.9443 14.12 3.29129C14.2284 3.5726 14.3586 3.99761 14.3927 4.77596C14.4299 5.61987 14.4392 5.87297 14.4392 8.00779C14.4392 10.1426 14.4299 10.3927 14.3927 11.2366Z" fill="white"/>
<path d="M7.93371 3.8916C5.68377 3.8916 3.85828 5.73254 3.85828 8.00178C3.85828 10.271 5.68377 12.112 7.93371 12.112C10.1838 12.112 12.0091 10.271 12.0091 8.00178C12.0091 5.73254 10.1838 3.8916 7.93371 3.8916ZM7.93371 10.6679C6.47407 10.6679 5.29008 9.47399 5.29008 8.00178C5.29008 6.52957 6.47407 5.33561 7.93371 5.33561C9.39348 5.33561 10.5773 6.52957 10.5773 8.00178C10.5773 9.47399 9.39348 10.6679 7.93371 10.6679Z" fill="white"/>
</svg>
