<svg width="16" height="11" viewBox="0 0 16 11" fill="none" xmlns="http://www.w3.org/2000/svg">
<path d="M15.6732 1.72124C15.4903 1.04818 14.9545 0.517618 14.2749 0.336384C13.0334 0 8.06746 0 8.06746 0C8.06746 0 3.10167 0 1.8602 0.323631C1.19371 0.504672 0.644779 1.04828 0.461962 1.72124C0.135254 2.95056 0.135254 5.5 0.135254 5.5C0.135254 5.5 0.135254 8.06229 0.461962 9.27876C0.644973 9.95172 1.18064 10.4823 1.8603 10.6635C3.11475 11 8.06766 11 8.06766 11C8.06766 11 13.0334 11 14.2749 10.6764C14.9546 10.4952 15.4903 9.96467 15.6734 9.29171C16 8.06229 16 5.51295 16 5.51295C16 5.51295 16.013 2.95056 15.6732 1.72124ZM6.48641 7.85527V3.14473L10.6159 5.5L6.48641 7.85527Z" fill="white"/>
</svg>
